<svg xmlns="http://www.w3.org/2000/svg" xmlns:xlink="http://www.w3.org/1999/xlink" version="1.1" baseProfile="full" viewBox="0 0 200 200" width="200" height="200">
<g fill="black">
<path d="M 87.6 138.4 L 87.7 139.1 L 87.8 139.6 L 87.9 140.0 L 88.1 140.3 L 88.5 140.7 L 89.3 141.1 L 90.3 141.4 L 91.7 141.7 L 104.2 141.7 L 104.2 88.4 L 116.2 94.4 L 149.0 94.4 L 149.0 86.9 L 42.9 86.9 L 42.9 94.4 L 75.7 94.4 L 81.7 89.4 L 92.7 98.4 L 87.7 102.4 L 87.7 136.2 L 87.6 137.4 Z M 33.1 174.1 L 33.6 169.5 L 37.2 166.6 L 40.7 165.9 L 43.8 165.1 L 46.6 164.1 L 49.0 162.9 L 51.1 161.6 L 53.0 160.1 L 54.7 158.3 L 56.2 156.2 L 57.5 153.7 L 58.1 150.8 L 59.9 150.8 L 60.0 154.1 L 60.1 157.3 L 59.6 160.6 L 58.4 163.7 L 56.7 166.7 L 54.4 169.5 L 51.6 172.1 L 48.3 174.4 L 44.6 176.4 L 40.5 178.2 L 35.9 177.6 Z M 108.04285717010498 150.7 L 109.9 152.0 L 106.02112674713135 154.1295774459839 L 105.79572067260742 155.21434440612794 L 107.0 157.0 L 110.5 160.6 L 114.9 163.7 L 120.2 166.5 L 126.7 169.0 L 131.10445346832276 170.2012145996094 L 132.4 169.1 L 135.8 165.6 L 144.2 157.2 L 146.3 154.9 L 148.0 152.9 L 149.4 151.1 L 149.68571424484253 150.7 Z M 133.1 126.7 L 129.0 128.4 L 124.7 129.8 L 120.3 131.0 L 119.38000001907349 131.2 L 142.76315793991088 131.2 L 141.5 129.7 L 139.7 127.7 L 137.7 125.7 L 136.84115619659423 124.92295083999633 Z M 151.8 115.6 L 148.4 118.2 L 146.2340000152588 119.64399995803834 L 151.2 122.7 L 153.1 126.9 L 151.6 131.2 L 155.6 131.2 L 155.6 116.32631578445435 L 151.9946026802063 115.4407795906067 Z M 116.2 107.2 L 116.2 129.72307691574096 L 119.0 128.0 L 122.6 125.4 L 126.2 123.0 L 129.6 120.5 L 130.70136156082154 119.63956127166747 L 128.3 117.7 L 125.6 115.7 L 122.8 113.5 L 119.7 111.6 L 120.4 110.0 L 123.9 111.0 L 127.5 111.8 L 130.9 112.8 L 134.2 114.0 L 136.47798957824708 114.8818024635315 L 138.8 112.8 L 141.6 110.1 L 144.2 107.3 L 144.28275861740113 107.2 Z M 149.72758617401124 107.2 L 155.1 112.9 L 155.6 115.0875 L 155.6 107.2 Z M 116.2 98.4 L 116.2 103.2 L 149.0 103.2 L 149.0 98.4 Z M 42.9 98.4 L 36.5 101.6 L 45.7 101.6 L 49.53999996185303 98.4 Z M 38.3 55.4 L 57.5 55.4 L 63.0 50.4 L 73.5 59.4 L 68.5 62.9 L 68.5 70.7 L 57.5 76.2 L 57.5 70.7 L 38.3 70.7 L 26.3 76.7 L 26.3 49.4 Z M 142.4 55.4 L 161.6 55.4 L 167.6 50.4 L 178.6 59.4 L 173.6 63.4 L 173.6 70.7 L 161.6 76.7 L 161.6 70.7 L 142.4 70.7 L 131.4 76.2 L 131.4 49.9 Z M 142.4 59.4 L 142.4 66.7 L 161.6 66.7 L 161.6 59.4 Z M 90.1 59.4 L 90.1 66.7 L 109.8 66.7 L 109.8 59.4 Z M 38.3 59.4 L 38.3 66.7 L 57.5 66.7 L 57.5 59.4 Z M 16.5 42.9 L 16.8 38.3 L 20.2 35.3 L 22.0 35.1 L 23.6 34.8 L 25.1 34.3 L 26.4 33.8 L 27.6 33.0 L 28.8 32.0 L 29.9 30.7 L 30.9 29.1 L 31.8 27.2 L 31.9 24.9 L 33.7 24.8 L 33.9875 27.1 L 94.0 27.1 L 94.0 21.9 L 36.6 21.9 L 36.6 17.9 L 156.7 17.9 L 161.2 11.9 L 167.2 17.9 L 167.2 21.9 L 106.0 21.9 L 106.0 27.1 L 169.8 27.1 L 170.8615385055542 26.215384578704835 L 171.0 26.0 L 171.7 24.7 L 172.12835817337037 25.159701538085937 L 175.8 22.1 L 186.8 31.1 L 181.8 34.1 L 169.8 39.1 L 169.8 37.73529415130615 L 168.2 38.3 L 166.3 38.8 L 164.4 39.2 L 162.8 40.0 L 161.9 38.5 L 163.3 37.4 L 164.4 35.9 L 166.4 32.9 L 167.68571424484253 31.1 L 106.0 31.1 L 106.0 49.1 L 94.0 55.1 L 94.0 31.1 L 34.55833330154419 31.1 L 34.6 32.1 L 34.3 34.6 L 33.6 37.0 L 32.4 39.3 L 30.9 41.4 L 28.9 43.4 L 26.7 45.2 L 24.1 46.7 L 19.5 46.3 Z M 165.2 49.7 L 115.3 49.7 L 115.3 45.7 L 165.2 45.7 Z M 84.6 49.7 L 34.7 49.7 L 34.7 45.7 L 84.6 45.7 Z M 84.6 40.8 L 39.5 40.8 L 39.5 36.8 L 84.6 36.8 Z M 158.5 40.8 L 115.3 40.8 L 115.3 36.8 L 158.5 36.8 Z M 179.5 128.7 L 181.5 128.7 L 179.5 141.7 L 182.2 143.5 L 184.0 146.2 L 182.2 148.9 L 179.5 150.7 L 153.6 150.7 L 159.7 156.8 L 160.6 160.3 L 155.77278480529785 159.30126581192016 L 154.2 160.2 L 151.7 161.7 L 148.9 163.3 L 145.8 165.0 L 142.2 167.0 L 138.3 169.1 L 134.3940700531006 171.09838275909425 L 134.4 171.1 L 143.3 172.8 L 153.4 174.1 L 164.7 174.9 L 177.2 175.4 L 188.6 175.8 L 176.7 188.6 L 163.6 187.4 L 151.8 185.8 L 141.1 183.6 L 131.6 180.9 L 123.3 177.7 L 116.2 173.9 L 110.5 169.5 L 106.1 164.5 L 103.92699384689331 160.2315951347351 L 101.7 164.5 L 96.3 170.3 L 89.3 175.2 L 80.9 179.1 L 71.0 182.4 L 59.6 184.9 L 46.7 186.8 L 32.1 187.9 L 16.0 188.3 L 15.9 186.5 L 31.7 184.2 L 45.8 181.5 L 58.1 178.5 L 68.7 175.1 L 77.5 171.4 L 84.4 167.3 L 89.4 163.0 L 92.7 158.6 L 94.5 154.2 L 94.7978723526001 150.7 L 89.3 150.7 L 86.9 150.4 L 84.6 149.8 L 82.5 148.8 L 80.5 147.4 L 78.8 145.6 L 77.5 143.5 L 76.6 141.1 L 76.0 138.7 L 75.7 136.2 L 75.7 98.4 L 53.9 98.4 L 62.7 105.6 L 59.325 108.3 L 61.8 108.3 L 66.3 102.3 L 72.3 108.3 L 72.3 112.3 L 57.7 112.3 L 57.7 118.9 L 55.417241382598874 120.04137935638428 L 62.7 126.0 L 59.45 128.6 L 61.8 128.6 L 66.3 122.6 L 72.3 128.6 L 72.3 132.6 L 57.7 132.6 L 57.7 139.7 L 45.7 145.7 L 45.7 139.7 L 22.7 139.7 L 22.7 135.7 L 45.7 135.7 L 45.7 132.6 L 16.9 132.6 L 16.9 128.6 L 45.7 128.6 L 45.7 126.0 L 22.7 126.0 L 22.7 122.0 L 45.7 122.0 L 45.7 118.9 L 22.7 118.9 L 22.7 114.9 L 45.7 114.9 L 45.7 112.3 L 16.9 112.3 L 16.9 108.3 L 45.7 108.3 L 45.7 105.6 L 22.7 105.6 L 22.7 101.6 L 30.9 101.6 L 30.9 76.9 L 42.9 82.9 L 64.86666669845582 82.9 L 65.3 82.7 L 67.7 81.0 L 70.0 79.5 L 72.3 78.1 L 74.5 76.7 L 76.6 75.3 L 78.7 74.0 L 79.1 73.72631578445434 L 79.1 49.9 L 90.1 55.4 L 109.8 55.4 L 115.3 50.4 L 125.8 59.4 L 120.8 62.9 L 120.8 70.7 L 109.8 76.2 L 109.8 70.7 L 90.1 70.7 L 85.85 72.825 L 93.2 79.5 L 93.3 82.7 L 89.561044216156 81.09759035110474 L 89.1 81.3 L 86.8 81.8 L 84.5 82.2 L 82.1 82.7 L 81.1 82.9 L 149.0 82.9 L 155.0 77.9 L 166.0 86.9 L 161.0 90.9 L 161.0 98.4 L 151.4 103.2 L 155.6 103.2 L 161.6 98.2 L 172.6 107.2 L 167.6 111.2 L 167.6 135.2 L 155.6 141.2 L 155.6 135.2 L 116.2 135.2 L 116.2 141.7 L 175.0 141.7 Z " />
</g>
</svg>
