<svg xmlns="http://www.w3.org/2000/svg" xmlns:xlink="http://www.w3.org/1999/xlink" version="1.1" baseProfile="full" viewBox="0 0 200 200" width="200" height="200">
<g fill="black">
<path d="M 155.9189781188965 57.782238483428955 L 166.3 66.3 L 166.6 69.3 L 162.24555177688597 67.21225080490112 L 158.3 68.1 L 149.2 69.8 L 139.2 71.3 L 128.3 72.6 L 116.6 73.8 L 103.9 74.9 L 103.07114763259888 74.94875602722168 L 99.7 87.2 L 96.40422534942627 96.2 L 145.0 96.2 L 155.0 86.2 L 167.0 96.2 L 167.0 100.2 L 94.93943662643433 100.2 L 94.5 101.4 L 88.2 114.9 L 83.79523811340331 122.4 L 163.0 122.4 L 173.0 112.4 L 185.0 122.4 L 185.0 126.4 L 81.44603176116944 126.4 L 80.8 127.5 L 72.4 139.4 L 62.9 150.5 L 52.3 160.8 L 40.8 170.3 L 28.1 178.8 L 14.4 186.4 L 13.5 184.9 L 25.9 175.7 L 37.4 166.1 L 47.8 156.1 L 57.2 145.5 L 65.5 134.4 L 70.55982904434204 126.4 L 16.0 126.4 L 16.0 122.4 L 73.05365858078002 122.4 L 79.2 110.4 L 83.39069766998291 100.2 L 33.0 100.2 L 33.0 96.2 L 84.91407403945922 96.2 L 88.8 84.0 L 90.73481731414795 75.67442255020141 L 90.3 75.7 L 75.9 76.5 L 60.5 76.9 L 44.2 77.1 L 27.0 77.0 L 26.9 75.2 L 44.0 73.4 L 60.1 71.6 L 75.4 69.9 L 89.6 68.2 L 103.0 66.4 L 115.4 64.6 L 126.9 62.7 L 137.4 60.7 L 147.0 58.6 L 155.6 56.4 Z M 134.0 16.0 L 137.0 18.0 L 134.0 19.8 L 134.0 35.1 L 165.0 35.1 L 175.0 25.1 L 187.0 35.1 L 187.0 39.1 L 134.0 39.1 L 134.0 55.4 L 122.0 61.4 L 122.0 39.1 L 78.0 39.1 L 78.0 55.4 L 66.0 61.4 L 66.0 39.1 L 13.0 39.1 L 13.0 35.1 L 66.0 35.1 L 66.0 14.0 L 78.0 16.0 L 81.0 18.0 L 78.0 19.8 L 78.0 35.1 L 122.0 35.1 L 122.0 14.0 Z " />
</g>
</svg>
